<svg xmlns="http://www.w3.org/2000/svg" width="576" height="42" viewBox="0 0 576 42" overflow="hidden">
  <style>
    .scroll { animation: s 18s linear infinite; }
    @keyframes s { 0%{transform:translateX(-606px)} 100%{transform:translateX(0)} }
    text {
      font-family: -apple-system,BlinkMacSystemFont,'Segoe UI',Helvetica,Arial,sans-serif;
      dominant-baseline: central;
    }
  </style>

  <g class="scroll">

    <!-- Java -->
    <rect x="0" y="1" width="82" height="40" rx="6" fill="#ED8B00"/>
    <rect x="0" y="1" width="32" height="40" rx="6" fill="#555"/><rect x="6" y="1" width="26" height="40" fill="#555"/>
    <text x="16" y="21" text-anchor="middle" font-size="12" font-weight="700" fill="#fff">Jv</text>
    <text x="57" y="21" text-anchor="middle" font-size="13" font-weight="500" fill="#fff">Java</text>

    <!-- Python -->
    <rect x="92" y="1" width="96" height="40" rx="6" fill="#3776AB"/>
    <rect x="92" y="1" width="32" height="40" rx="6" fill="#555"/><rect x="98" y="1" width="26" height="40" fill="#555"/>
    <text x="108" y="21" text-anchor="middle" font-size="12" font-weight="700" fill="#fff">Py</text>
    <text x="156" y="21" text-anchor="middle" font-size="13" font-weight="500" fill="#fff">Python</text>

    <!-- JavaScript -->
    <rect x="198" y="1" width="116" height="40" rx="6" fill="#F7DF1E"/>
    <rect x="198" y="1" width="32" height="40" rx="6" fill="#555"/><rect x="204" y="1" width="26" height="40" fill="#555"/>
    <text x="214" y="21" text-anchor="middle" font-size="12" font-weight="700" fill="#fff">JS</text>
    <text x="272" y="21" text-anchor="middle" font-size="13" font-weight="500" fill="#000">JavaScript</text>

    <!-- C -->
    <rect x="324" y="1" width="70" height="40" rx="6" fill="#00599C"/>
    <rect x="324" y="1" width="32" height="40" rx="6" fill="#555"/><rect x="330" y="1" width="26" height="40" fill="#555"/>
    <text x="340" y="21" text-anchor="middle" font-size="12" font-weight="700" fill="#fff">C</text>
    <text x="372" y="21" text-anchor="middle" font-size="13" font-weight="500" fill="#fff">C</text>

    <!-- SQL -->
    <rect x="404" y="1" width="82" height="40" rx="6" fill="#336791"/>
    <rect x="404" y="1" width="32" height="40" rx="6" fill="#555"/><rect x="410" y="1" width="26" height="40" fill="#555"/>
    <text x="420" y="21" text-anchor="middle" font-size="12" font-weight="700" fill="#fff">DB</text>
    <text x="461" y="21" text-anchor="middle" font-size="13" font-weight="500" fill="#fff">SQL</text>

    <!-- Duplicate Set (+606) -->

    <rect x="606" y="1" width="82" height="40" rx="6" fill="#ED8B00"/>
    <rect x="606" y="1" width="32" height="40" rx="6" fill="#555"/><rect x="612" y="1" width="26" height="40" fill="#555"/>
    <text x="622" y="21" text-anchor="middle" font-size="12" font-weight="700" fill="#fff">Jv</text>
    <text x="663" y="21" text-anchor="middle" font-size="13" font-weight="500" fill="#fff">Java</text>

    <rect x="698" y="1" width="96" height="40" rx="6" fill="#3776AB"/>
    <rect x="698" y="1" width="32" height="40" rx="6" fill="#555"/><rect x="704" y="1" width="26" height="40" fill="#555"/>
    <text x="714" y="21" text-anchor="middle" font-size="12" font-weight="700" fill="#fff">Py</text>
    <text x="762" y="21" text-anchor="middle" font-size="13" font-weight="500" fill="#fff">Python</text>

    <rect x="804" y="1" width="116" height="40" rx="6" fill="#F7DF1E"/>
    <rect x="804" y="1" width="32" height="40" rx="6" fill="#555"/><rect x="810" y="1" width="26" height="40" fill="#555"/>
    <text x="820" y="21" text-anchor="middle" font-size="12" font-weight="700" fill="#fff">JS</text>
    <text x="878" y="21" text-anchor="middle" font-size="13" font-weight="500" fill="#000">JavaScript</text>

    <rect x="930" y="1" width="70" height="40" rx="6" fill="#00599C"/>
    <rect x="930" y="1" width="32" height="40" rx="6" fill="#555"/><rect x="936" y="1" width="26" height="40" fill="#555"/>
    <text x="946" y="21" text-anchor="middle" font-size="12" font-weight="700" fill="#fff">C</text>
    <text x="978" y="21" text-anchor="middle" font-size="13" font-weight="500" fill="#fff">C</text>

    <rect x="1010" y="1" width="82" height="40" rx="6" fill="#336791"/>
    <rect x="1010" y="1" width="32" height="40" rx="6" fill="#555"/><rect x="1016" y="1" width="26" height="40" fill="#555"/>
    <text x="1026" y="21" text-anchor="middle" font-size="12" font-weight="700" fill="#fff">DB</text>
    <text x="1067" y="21" text-anchor="middle" font-size="13" font-weight="500" fill="#fff">SQL</text>

  </g>
</svg>
